<svg width="16" height="16" viewBox="0 0 16 16" fill="none" xmlns="http://www.w3.org/2000/svg">
<path d="M3.33326 2V14C3.33364 14.1215 3.36715 14.2406 3.43018 14.3444C3.49321 14.4483 3.58337 14.533 3.69097 14.5895C3.79856 14.6459 3.9195 14.6719 4.04079 14.6647C4.16207 14.6575 4.27909 14.6174 4.37926 14.5487L13.0459 8.54866C13.4053 8.3 13.4053 7.70133 13.0459 7.452L4.37926 1.452C4.2793 1.38255 4.16222 1.34182 4.04073 1.33424C3.91925 1.32666 3.79801 1.35252 3.69019 1.40901C3.58237 1.46549 3.49209 1.55045 3.42917 1.65464C3.36624 1.75883 3.33307 1.87828 3.33326 2Z" fill="black"/>
</svg>
